<svg xmlns="http://www.w3.org/2000/svg" xmlns:xlink="http://www.w3.org/1999/xlink" width="1920" zoomAndPan="magnify" viewBox="0 0 1440 809.999993" height="1080" preserveAspectRatio="xMidYMid meet" version="1.0"><defs><g/><clipPath id="b566da1330"><path d="M 0.28125 1 L 760 1 L 760 421 L 0.28125 421 Z M 0.28125 1 " clip-rule="nonzero"/></clipPath><clipPath id="8bbcbb2224"><path d="M 4 312 L 766.339844 312 L 766.339844 648.9375 L 4 648.9375 Z M 4 312 " clip-rule="nonzero"/></clipPath><clipPath id="e947d18b42"><path d="M 526.269531 471.128906 L 822.5625 471.128906 L 822.5625 494.285156 L 526.269531 494.285156 Z M 526.269531 471.128906 " clip-rule="nonzero"/></clipPath><clipPath id="51ebee8cf8"><path d="M 0.269531 0.128906 L 296.5625 0.128906 L 296.5625 23.285156 L 0.269531 23.285156 Z M 0.269531 0.128906 " clip-rule="nonzero"/></clipPath><clipPath id="d31fdc4659"><rect x="0" width="297" y="0" height="24"/></clipPath><clipPath id="987532d1c6"><rect x="0" width="234" y="0" height="300"/></clipPath><clipPath id="da9f15be60"><rect x="0" width="1374" y="0" height="650"/></clipPath></defs><g transform="matrix(1, 0, 0, 1, 35, 80)"><g clip-path="url(#da9f15be60)"><g fill="#737373" fill-opacity="1"><g transform="translate(982.591871, 490.156829)"><g><path d="M 15.921875 0.703125 C 12.054688 0.703125 8.992188 -0.273438 6.734375 -2.234375 C 4.472656 -4.191406 3.34375 -6.867188 3.34375 -10.265625 C 3.34375 -13.609375 4.601562 -16.257812 7.125 -18.21875 C 9.164062 -19.851562 12.117188 -21.0625 15.984375 -21.84375 L 29.734375 -24.5 C 29.734375 -27.53125 28.941406 -29.835938 27.359375 -31.421875 C 25.597656 -33.179688 23.226562 -34.0625 20.25 -34.0625 C 17.875 -34.0625 15.8125 -33.429688 14.0625 -32.171875 C 12.320312 -30.921875 11.21875 -29.203125 10.75 -27.015625 L 4.8125 -27.015625 C 5.28125 -29.710938 6.269531 -31.96875 7.78125 -33.78125 C 9.289062 -35.601562 11.140625 -36.976562 13.328125 -37.90625 C 15.515625 -38.832031 17.84375 -39.296875 20.3125 -39.296875 C 22.550781 -39.296875 24.65625 -38.96875 26.625 -38.3125 C 28.601562 -37.664062 30.269531 -36.671875 31.625 -35.328125 C 32.976562 -34.023438 33.929688 -32.554688 34.484375 -30.921875 C 35.046875 -29.296875 35.382812 -27.75 35.5 -26.28125 C 35.613281 -24.8125 35.671875 -23.640625 35.671875 -22.765625 L 35.671875 0 L 29.734375 0 L 29.734375 -6.078125 C 28.390625 -4.117188 26.832031 -2.601562 25.0625 -1.53125 C 23.757812 -0.738281 22.347656 -0.171875 20.828125 0.171875 C 19.316406 0.523438 17.679688 0.703125 15.921875 0.703125 Z M 16.609375 -4.53125 C 18.984375 -4.53125 21.035156 -4.972656 22.765625 -5.859375 C 25.503906 -7.304688 27.363281 -9.171875 28.34375 -11.453125 C 29.320312 -13.734375 29.8125 -16.476562 29.8125 -19.6875 L 17.25 -17.171875 C 14.363281 -16.617188 12.242188 -15.710938 10.890625 -14.453125 C 9.816406 -13.378906 9.28125 -12.03125 9.28125 -10.40625 C 9.28125 -8.632812 9.941406 -7.210938 11.265625 -6.140625 C 12.597656 -5.066406 14.378906 -4.53125 16.609375 -4.53125 Z M 16.609375 -4.53125 "/></g></g></g><g fill="#737373" fill-opacity="1"><g transform="translate(1022.804499, 490.156829)"><g><path d="M 8.453125 0 L 1.390625 0 L 15.28125 -19.34375 L 1.390625 -38.609375 L 8.453125 -38.609375 L 19.125 -23.453125 L 29.875 -38.609375 L 37 -38.609375 L 22.90625 -19.34375 L 37 0 L 29.875 0 L 19.125 -15.15625 Z M 8.453125 0 "/></g></g></g><g fill="#737373" fill-opacity="1"><g transform="translate(1061.201974, 490.156829)"><g><path d="M 7.953125 -45.234375 C 6.703125 -45.234375 5.632812 -45.664062 4.75 -46.53125 C 3.863281 -47.394531 3.421875 -48.429688 3.421875 -49.640625 C 3.421875 -50.847656 3.863281 -51.867188 4.75 -52.703125 C 5.632812 -53.546875 6.703125 -53.96875 7.953125 -53.96875 C 9.210938 -53.96875 10.285156 -53.546875 11.171875 -52.703125 C 12.054688 -51.867188 12.5 -50.847656 12.5 -49.640625 C 12.5 -48.429688 12.054688 -47.394531 11.171875 -46.53125 C 10.285156 -45.664062 9.210938 -45.234375 7.953125 -45.234375 Z M 10.890625 0 L 4.953125 0 L 4.953125 -38.609375 L 10.890625 -38.609375 Z M 10.890625 0 "/></g></g></g><g fill="#737373" fill-opacity="1"><g transform="translate(1077.049652, 490.156829)"><g><path d="M 10.890625 0 L 4.953125 0 L 4.953125 -38.609375 L 10.890625 -38.609375 L 10.890625 -32.609375 C 12.847656 -35.117188 14.722656 -36.859375 16.515625 -37.828125 C 18.304688 -38.804688 20.25 -39.296875 22.34375 -39.296875 C 25.363281 -39.296875 27.78125 -38.726562 29.59375 -37.59375 C 31.414062 -36.457031 32.789062 -35.003906 33.71875 -33.234375 C 34.644531 -31.503906 35.175781 -29.707031 35.3125 -27.84375 C 35.457031 -25.988281 35.53125 -24.457031 35.53125 -23.25 L 35.53125 0 L 29.59375 0 L 29.59375 -23.25 C 29.59375 -27.34375 28.847656 -30.226562 27.359375 -31.90625 C 26.054688 -33.34375 24.082031 -34.0625 21.4375 -34.0625 C 19.851562 -34.0625 18.476562 -33.804688 17.3125 -33.296875 C 16.144531 -32.785156 15.164062 -32.085938 14.375 -31.203125 C 13.125 -29.898438 12.226562 -28.109375 11.6875 -25.828125 C 11.15625 -23.546875 10.890625 -20.425781 10.890625 -16.46875 Z M 10.890625 0 "/></g></g></g><g fill="#737373" fill-opacity="1"><g transform="translate(1117.26228, 490.156829)"><g><path d="M 22.125 0.703125 C 18.445312 0.703125 15.1875 -0.164062 12.34375 -1.90625 C 9.507812 -3.65625 7.300781 -6.03125 5.71875 -9.03125 C 4.132812 -12.039062 3.34375 -15.429688 3.34375 -19.203125 C 3.34375 -22.691406 4.0625 -25.972656 5.5 -29.046875 C 6.945312 -32.117188 9.066406 -34.59375 11.859375 -36.46875 C 14.660156 -38.351562 18.035156 -39.296875 21.984375 -39.296875 C 25.242188 -39.296875 28.28125 -38.570312 31.09375 -37.125 C 33.914062 -35.6875 36.207031 -33.546875 37.96875 -30.703125 C 39.738281 -27.867188 40.625 -24.382812 40.625 -20.25 L 40.625 -18.15625 L 9.21875 -18.15625 C 9.3125 -16.800781 9.566406 -15.519531 9.984375 -14.3125 C 10.960938 -11.332031 12.519531 -8.957031 14.65625 -7.1875 C 16.800781 -5.414062 19.269531 -4.53125 22.0625 -4.53125 C 24.988281 -4.53125 27.429688 -5.3125 29.390625 -6.875 C 31.347656 -8.4375 32.742188 -10.285156 33.578125 -12.421875 L 39.9375 -12.421875 C 39.144531 -10.003906 37.957031 -7.804688 36.375 -5.828125 C 34.789062 -3.847656 32.820312 -2.265625 30.46875 -1.078125 C 28.125 0.109375 25.34375 0.703125 22.125 0.703125 Z M 9.78125 -23.390625 L 34.28125 -23.390625 C 34.226562 -24.035156 34.132812 -24.679688 34 -25.328125 C 33.863281 -25.984375 33.675781 -26.59375 33.4375 -27.15625 C 32.414062 -29.394531 30.890625 -31.101562 28.859375 -32.28125 C 26.835938 -33.46875 24.59375 -34.0625 22.125 -34.0625 C 19.570312 -34.0625 17.328125 -33.457031 15.390625 -32.25 C 13.460938 -31.039062 11.960938 -29.34375 10.890625 -27.15625 C 10.609375 -26.550781 10.375 -25.921875 10.1875 -25.265625 C 10 -24.617188 9.863281 -23.992188 9.78125 -23.390625 Z M 9.78125 -23.390625 "/></g></g></g><g fill="#737373" fill-opacity="1"><g transform="translate(1161.175024, 490.156829)"><g/></g></g><g fill="#737373" fill-opacity="1"><g transform="translate(1180.722833, 490.156829)"><g><path d="M 7.46875 0 L 0.984375 0 L 20.59375 -53.265625 L 27.859375 -53.265625 L 47.46875 0 L 40.984375 0 L 36.296875 -13.0625 L 12.140625 -13.0625 Z M 24.21875 -46.703125 L 14.3125 -18.78125 L 34.140625 -18.78125 Z M 24.21875 -46.703125 "/></g></g></g><g fill="#737373" fill-opacity="1"><g transform="translate(1229.173473, 490.156829)"><g><path d="M 10.890625 0 L 4.953125 0 L 4.953125 -38.609375 L 10.890625 -38.609375 L 10.890625 -32.609375 C 12.847656 -35.117188 14.722656 -36.859375 16.515625 -37.828125 C 18.304688 -38.804688 20.25 -39.296875 22.34375 -39.296875 C 25.363281 -39.296875 27.78125 -38.726562 29.59375 -37.59375 C 31.414062 -36.457031 32.789062 -35.003906 33.71875 -33.234375 C 34.644531 -31.503906 35.175781 -29.707031 35.3125 -27.84375 C 35.457031 -25.988281 35.53125 -24.457031 35.53125 -23.25 L 35.53125 0 L 29.59375 0 L 29.59375 -23.25 C 29.59375 -27.34375 28.847656 -30.226562 27.359375 -31.90625 C 26.054688 -33.34375 24.082031 -34.0625 21.4375 -34.0625 C 19.851562 -34.0625 18.476562 -33.804688 17.3125 -33.296875 C 16.144531 -32.785156 15.164062 -32.085938 14.375 -31.203125 C 13.125 -29.898438 12.226562 -28.109375 11.6875 -25.828125 C 11.15625 -23.546875 10.890625 -20.425781 10.890625 -16.46875 Z M 10.890625 0 "/></g></g></g><g fill="#737373" fill-opacity="1"><g transform="translate(1269.386074, 490.156829)"><g><path d="M 10.890625 0 L 4.953125 0 L 4.953125 -38.609375 L 10.890625 -38.609375 L 10.890625 -32.609375 C 12.847656 -35.117188 14.722656 -36.859375 16.515625 -37.828125 C 18.304688 -38.804688 20.25 -39.296875 22.34375 -39.296875 C 25.363281 -39.296875 27.78125 -38.726562 29.59375 -37.59375 C 31.414062 -36.457031 32.789062 -35.003906 33.71875 -33.234375 C 34.644531 -31.503906 35.175781 -29.707031 35.3125 -27.84375 C 35.457031 -25.988281 35.53125 -24.457031 35.53125 -23.25 L 35.53125 0 L 29.59375 0 L 29.59375 -23.25 C 29.59375 -27.34375 28.847656 -30.226562 27.359375 -31.90625 C 26.054688 -33.34375 24.082031 -34.0625 21.4375 -34.0625 C 19.851562 -34.0625 18.476562 -33.804688 17.3125 -33.296875 C 16.144531 -32.785156 15.164062 -32.085938 14.375 -31.203125 C 13.125 -29.898438 12.226562 -28.109375 11.6875 -25.828125 C 11.15625 -23.546875 10.890625 -20.425781 10.890625 -16.46875 Z M 10.890625 0 "/></g></g></g><g fill="#737373" fill-opacity="1"><g transform="translate(1309.598729, 490.156829)"><g><path d="M 22.125 0.703125 C 18.445312 0.703125 15.1875 -0.164062 12.34375 -1.90625 C 9.507812 -3.65625 7.300781 -6.03125 5.71875 -9.03125 C 4.132812 -12.039062 3.34375 -15.429688 3.34375 -19.203125 C 3.34375 -22.691406 4.0625 -25.972656 5.5 -29.046875 C 6.945312 -32.117188 9.066406 -34.59375 11.859375 -36.46875 C 14.660156 -38.351562 18.035156 -39.296875 21.984375 -39.296875 C 25.242188 -39.296875 28.28125 -38.570312 31.09375 -37.125 C 33.914062 -35.6875 36.207031 -33.546875 37.96875 -30.703125 C 39.738281 -27.867188 40.625 -24.382812 40.625 -20.25 L 40.625 -18.15625 L 9.21875 -18.15625 C 9.3125 -16.800781 9.566406 -15.519531 9.984375 -14.3125 C 10.960938 -11.332031 12.519531 -8.957031 14.65625 -7.1875 C 16.800781 -5.414062 19.269531 -4.53125 22.0625 -4.53125 C 24.988281 -4.53125 27.429688 -5.3125 29.390625 -6.875 C 31.347656 -8.4375 32.742188 -10.285156 33.578125 -12.421875 L 39.9375 -12.421875 C 39.144531 -10.003906 37.957031 -7.804688 36.375 -5.828125 C 34.789062 -3.847656 32.820312 -2.265625 30.46875 -1.078125 C 28.125 0.109375 25.34375 0.703125 22.125 0.703125 Z M 9.78125 -23.390625 L 34.28125 -23.390625 C 34.226562 -24.035156 34.132812 -24.679688 34 -25.328125 C 33.863281 -25.984375 33.675781 -26.59375 33.4375 -27.15625 C 32.414062 -29.394531 30.890625 -31.101562 28.859375 -32.28125 C 26.835938 -33.46875 24.59375 -34.0625 22.125 -34.0625 C 19.570312 -34.0625 17.328125 -33.457031 15.390625 -32.25 C 13.460938 -31.039062 11.960938 -29.34375 10.890625 -27.15625 C 10.609375 -26.550781 10.375 -25.921875 10.1875 -25.265625 C 10 -24.617188 9.863281 -23.992188 9.78125 -23.390625 Z M 9.78125 -23.390625 "/></g></g></g><g fill="#737373" fill-opacity="1"><g transform="translate(1353.511446, 490.156829)"><g><path d="M 17.25 0 L 13.96875 0 C 12.050781 0 10.40625 -0.265625 9.03125 -0.796875 C 7.664062 -1.335938 6.617188 -2.316406 5.890625 -3.734375 C 5.171875 -5.148438 4.8125 -7.140625 4.8125 -9.703125 L 4.8125 -53.265625 L 10.75 -53.265625 L 10.75 -10.609375 C 10.75 -9.441406 10.828125 -8.460938 10.984375 -7.671875 C 11.148438 -6.890625 11.554688 -6.285156 12.203125 -5.859375 C 12.859375 -5.441406 13.910156 -5.234375 15.359375 -5.234375 L 17.25 -5.234375 Z M 17.25 0 "/></g></g></g><g clip-path="url(#b566da1330)"><path fill="#737373" d="M 88.574219 420.644531 L 146.273438 420.644531 C 152.757812 420.644531 158.015625 415.390625 158.015625 408.902344 C 158.015625 402.417969 152.757812 397.160156 146.273438 397.160156 L 88.574219 397.160156 C 54.285156 397.160156 26.078125 370.921875 24.363281 337.429688 C 23.464844 319.921875 29.59375 303.3125 41.613281 290.660156 C 48.28125 283.640625 56.246094 278.378906 64.992188 275.074219 C 65.09375 275.042969 65.195312 275.015625 65.296875 274.980469 C 65.441406 274.929688 65.574219 274.863281 65.71875 274.808594 C 72.503906 272.339844 79.746094 271.039062 87.210938 271.023438 C 87.386719 271.03125 87.570312 271.035156 87.800781 271.035156 L 106.601562 271.027344 C 106.074219 279.585938 107.257812 288.289062 110.28125 296.601562 C 112.015625 301.371094 116.519531 304.332031 121.316406 304.332031 C 122.652344 304.332031 124.007812 304.105469 125.328125 303.621094 C 131.425781 301.40625 134.566406 294.667969 132.351562 288.574219 C 127.828125 276.140625 129.753906 262.328125 137.5 251.628906 C 143.5 243.332031 152.347656 237.730469 162.410156 235.855469 C 168.785156 234.667969 172.988281 228.535156 171.796875 222.160156 C 170.609375 215.785156 164.472656 211.582031 158.101562 212.769531 C 142.097656 215.753906 128.023438 224.667969 118.476562 237.859375 C 116.246094 240.9375 114.332031 244.183594 112.714844 247.542969 L 87.949219 247.550781 C 87.75 247.542969 87.546875 247.539062 87.34375 247.539062 C 81.246094 247.539062 75.257812 248.167969 69.449219 249.375 C 68.210938 243.566406 67.585938 237.625 67.585938 231.605469 C 67.585938 188.558594 99.777344 152.914062 141.378906 147.417969 C 141.769531 150.714844 142.347656 153.980469 143.121094 157.195312 C 144.414062 162.578125 149.222656 166.195312 154.527344 166.195312 C 155.4375 166.195312 156.359375 166.089844 157.28125 165.871094 C 163.585938 164.355469 167.46875 158.015625 165.957031 151.710938 C 164.839844 147.0625 164.273438 142.257812 164.273438 137.421875 C 164.273438 103.816406 191.609375 76.480469 225.214844 76.480469 C 232.292969 76.480469 239.195312 77.683594 245.679688 79.988281 C 245.792969 80.03125 245.910156 80.078125 246.027344 80.121094 C 254.25 83.101562 261.800781 87.863281 268.183594 94.210938 C 272.785156 98.785156 280.21875 98.765625 284.792969 94.167969 C 289.363281 89.566406 289.34375 82.132812 284.746094 77.558594 C 278.402344 71.25 271.21875 66.089844 263.464844 62.140625 C 270.417969 40.191406 291.121094 24.523438 314.785156 24.523438 C 344.460938 24.523438 368.601562 48.664062 368.601562 78.339844 L 368.601562 131.046875 C 359.703125 124.820312 348.886719 121.152344 337.222656 121.152344 C 324.757812 121.152344 312.550781 125.445312 302.855469 133.246094 C 297.800781 137.3125 297 144.703125 301.066406 149.757812 C 305.132812 154.8125 312.523438 155.609375 317.574219 151.546875 C 323.195312 147.023438 329.988281 144.636719 337.222656 144.636719 C 354.523438 144.636719 368.597656 158.710938 368.597656 176.011719 L 368.597656 263.914062 C 368.597656 270.398438 373.855469 275.65625 380.339844 275.65625 C 386.824219 275.65625 392.082031 270.398438 392.082031 263.914062 L 392.082031 201.125 C 396.097656 194 401.863281 189.292969 409.292969 187.167969 C 417.757812 184.746094 427.625 185.917969 436.488281 190.246094 C 438.3125 199.550781 442.390625 208.546875 448.820312 216.375 C 456.363281 225.554688 466.351562 232.191406 477.699219 235.566406 C 478.816406 235.898438 479.945312 236.058594 481.054688 236.058594 C 486.113281 236.058594 490.785156 232.757812 492.304688 227.660156 C 494.152344 221.445312 490.609375 214.90625 484.394531 213.058594 C 477.550781 211.023438 471.523438 207.015625 466.96875 201.46875 C 454.433594 186.210938 456.652344 163.597656 471.910156 151.0625 C 476.921875 146.945312 477.648438 139.546875 473.53125 134.535156 C 469.414062 129.527344 462.019531 128.796875 457.003906 132.914062 C 446.527344 141.523438 439.773438 153.003906 436.925781 165.292969 C 425.578125 161.847656 413.617188 161.503906 402.835938 164.585938 C 399.023438 165.679688 395.4375 167.160156 392.082031 168.992188 L 392.082031 78.34375 C 392.082031 48.667969 416.226562 24.527344 445.902344 24.527344 C 469.558594 24.527344 490.261719 40.191406 497.21875 62.136719 C 489.15625 66.242188 481.71875 71.660156 475.1875 78.320312 C 470.648438 82.949219 470.71875 90.382812 475.351562 94.925781 C 479.980469 99.464844 487.414062 99.390625 491.957031 94.761719 C 498.414062 88.175781 506.09375 83.246094 514.488281 80.175781 C 514.660156 80.117188 514.828125 80.058594 514.992188 79.996094 C 521.476562 77.691406 528.371094 76.484375 535.46875 76.484375 C 569.070312 76.484375 596.40625 103.824219 596.40625 137.425781 C 596.40625 142.261719 595.839844 147.070312 594.726562 151.714844 C 593.210938 158.023438 597.09375 164.359375 603.402344 165.875 C 604.320312 166.09375 605.246094 166.203125 606.152344 166.203125 C 611.457031 166.203125 616.265625 162.582031 617.5625 157.199219 C 618.332031 153.980469 618.914062 150.714844 619.304688 147.417969 C 660.886719 152.898438 693.097656 188.550781 693.097656 231.609375 C 693.097656 237.628906 692.46875 243.574219 691.234375 249.378906 C 685.421875 248.167969 679.433594 247.542969 673.339844 247.542969 C 673.144531 247.542969 672.949219 247.546875 672.738281 247.554688 L 642.484375 247.542969 C 642.484375 247.542969 642.484375 247.542969 642.480469 247.542969 C 636 247.542969 630.742188 252.796875 630.738281 259.28125 C 630.738281 265.765625 635.992188 271.023438 642.476562 271.027344 L 672.941406 271.039062 C 673.113281 271.039062 673.28125 271.03125 673.46875 271.027344 C 680.9375 271.042969 688.179688 272.34375 694.96875 274.8125 C 695.109375 274.867188 695.242188 274.933594 695.386719 274.984375 C 695.484375 275.015625 695.585938 275.042969 695.683594 275.074219 C 704.429688 278.378906 712.398438 283.640625 719.066406 290.664062 C 731.089844 303.316406 737.214844 319.925781 736.320312 337.429688 C 734.605469 370.925781 706.398438 397.164062 672.105469 397.164062 L 630.097656 397.164062 C 623.613281 397.164062 618.355469 402.417969 618.355469 408.90625 C 618.355469 415.390625 623.613281 420.644531 630.097656 420.644531 L 672.105469 420.644531 C 718.910156 420.644531 757.417969 384.621094 759.773438 338.628906 C 761.003906 314.632812 752.59375 291.855469 736.09375 274.488281 C 729.414062 267.457031 721.777344 261.730469 713.476562 257.371094 C 715.523438 248.980469 716.582031 240.355469 716.582031 231.609375 C 716.582031 175.410156 673.605469 129.070312 618.757812 123.707031 C 612.183594 83.660156 577.347656 53.003906 535.46875 53.003906 C 530.019531 53.003906 524.660156 53.527344 519.429688 54.527344 C 509.265625 23.285156 479.675781 1.042969 445.898438 1.042969 C 418.28125 1.042969 394.011719 15.613281 380.339844 37.460938 C 366.664062 15.613281 342.398438 1.042969 314.78125 1.042969 C 281.003906 1.042969 251.414062 23.285156 241.246094 54.527344 C 236.015625 53.523438 230.652344 53.003906 225.210938 53.003906 C 183.335938 53.003906 148.5 83.65625 141.921875 123.703125 C 87.09375 129.050781 44.101562 175.398438 44.101562 231.609375 C 44.101562 240.355469 45.15625 248.980469 47.207031 257.371094 C 38.90625 261.730469 31.265625 267.457031 24.585938 274.488281 C 8.085938 291.855469 -0.324219 314.632812 0.90625 338.628906 C 3.265625 384.621094 41.773438 420.644531 88.574219 420.644531 Z M 88.574219 420.644531 " fill-opacity="1" fill-rule="nonzero"/></g><g clip-path="url(#8bbcbb2224)"><path fill="#737373" d="M 754.597656 470.992188 L 517.003906 470.992188 C 513.417969 470.992188 510.03125 472.628906 507.804688 475.441406 L 478.171875 512.828125 L 457.042969 390.304688 C 456.097656 384.824219 451.4375 380.757812 445.878906 380.5625 C 440.339844 380.390625 435.390625 384.105469 434.066406 389.503906 L 390.476562 567.378906 L 366.835938 322.972656 C 366.277344 317.199219 361.589844 312.699219 355.796875 312.378906 C 350.003906 312.050781 344.847656 316.015625 343.660156 321.691406 L 303.417969 513.6875 L 266.5625 404.546875 C 264.988281 399.894531 260.691406 396.710938 255.78125 396.566406 C 250.855469 396.429688 246.394531 399.34375 244.554688 403.898438 L 215.667969 475.269531 L 16.34375 475.269531 C 9.859375 475.269531 4.601562 480.523438 4.601562 487.011719 C 4.601562 493.496094 9.859375 498.75 16.34375 498.75 L 223.582031 498.75 C 228.367188 498.75 232.671875 495.847656 234.464844 491.414062 L 254.441406 442.058594 L 294.949219 562.011719 C 296.644531 567.03125 301.503906 570.328125 306.773438 569.976562 C 312.058594 569.660156 316.480469 565.84375 317.566406 560.664062 L 350.867188 401.78125 L 373.75 638.394531 C 374.300781 644.09375 378.882812 648.5625 384.59375 648.976562 C 384.878906 648.996094 385.160156 649.007812 385.445312 649.007812 C 390.8125 649.007812 395.546875 645.34375 396.84375 640.058594 L 443.472656 449.792969 L 459.488281 542.695312 C 460.277344 547.257812 463.671875 550.933594 468.160156 552.078125 C 472.648438 553.214844 477.386719 551.621094 480.265625 547.992188 L 522.679688 494.476562 L 754.597656 494.476562 C 761.082031 494.476562 766.339844 489.21875 766.339844 482.734375 C 766.339844 476.25 761.082031 470.992188 754.597656 470.992188 Z M 754.597656 470.992188 " fill-opacity="1" fill-rule="nonzero"/></g><path fill="#737373" d="M 565.65625 291.167969 C 559.222656 290.882812 553.691406 295.898438 553.402344 302.375 C 553.058594 310.085938 549.734375 317.199219 544.039062 322.40625 C 538.34375 327.613281 530.976562 330.304688 523.25 329.949219 C 516.796875 329.628906 511.285156 334.675781 510.996094 341.152344 C 510.707031 347.628906 515.722656 353.117188 522.203125 353.40625 C 523.003906 353.441406 523.800781 353.460938 524.597656 353.460938 C 537.574219 353.460938 549.90625 348.722656 559.597656 339.988281 C 562.367188 340.898438 571.230469 344.546875 573.871094 354.621094 C 575.253906 359.894531 580.011719 363.386719 585.222656 363.386719 C 586.207031 363.386719 587.210938 363.261719 588.207031 363 C 594.480469 361.355469 598.230469 354.9375 596.589844 348.664062 C 592.675781 333.734375 582.316406 324.867188 573.28125 320.292969 C 575.371094 314.976562 576.601562 309.296875 576.863281 303.421875 C 577.152344 296.945312 572.136719 291.460938 565.65625 291.167969 Z M 565.65625 291.167969 " fill-opacity="1" fill-rule="nonzero"/><path fill="#737373" d="M 235.117188 287.855469 C 223.933594 296.261719 216.695312 308.519531 214.730469 322.371094 C 213.820312 328.789062 218.289062 334.734375 224.710938 335.644531 C 225.269531 335.722656 225.824219 335.761719 226.371094 335.761719 C 232.125 335.761719 237.152344 331.527344 237.984375 325.664062 C 239.066406 318.023438 243.058594 311.261719 249.226562 306.625 C 255.394531 301.988281 263 300.03125 270.640625 301.113281 C 277.070312 302.03125 283.003906 297.558594 283.917969 291.136719 C 284.828125 284.714844 280.359375 278.773438 273.9375 277.863281 C 260.078125 275.902344 246.296875 279.449219 235.117188 287.855469 Z M 235.117188 287.855469 " fill-opacity="1" fill-rule="nonzero"/><g clip-path="url(#e947d18b42)"><g transform="matrix(1, 0, 0, 1, 526, 471)"><g clip-path="url(#d31fdc4659)"><g clip-path="url(#51ebee8cf8)"><path fill="#737373" d="M 0.269531 0.128906 L 296.605469 0.128906 L 296.605469 23.285156 L 0.269531 23.285156 Z M 0.269531 0.128906 " fill-opacity="1" fill-rule="nonzero"/></g></g></g></g><g transform="matrix(1, 0, 0, 1, 773, 243)"><g clip-path="url(#987532d1c6)"><g fill="#737373" fill-opacity="1"><g transform="translate(7.770389, 233.212531)"><g><path d="M 41.6875 0 L 19.265625 0 L 19.265625 -186.03125 L 59.484375 -186.03125 L 109.46875 -27.796875 L 159.453125 -186.03125 L 199.921875 -186.03125 L 199.921875 0 L 177.5 0 L 177.5 -172.625 L 120.6875 0 L 98.5 0 L 41.6875 -171.40625 Z M 41.6875 0 "/></g></g></g></g></g><g fill="#737373" fill-opacity="1"><g transform="translate(942.891517, 546.911827)"><g><path d="M 7.421875 0 L 3.4375 0 L 3.4375 -33.125 L 15.765625 -33.125 C 18.941406 -33.125 21.484375 -32.34375 23.390625 -30.78125 C 25.304688 -29.21875 26.265625 -26.847656 26.265625 -23.671875 C 26.265625 -20.628906 25.304688 -18.253906 23.390625 -16.546875 C 21.484375 -14.835938 18.941406 -13.984375 15.765625 -13.984375 L 7.421875 -13.984375 Z M 7.421875 -29.53125 L 7.421875 -17.546875 L 15.234375 -17.546875 C 17.523438 -17.546875 19.273438 -18.054688 20.484375 -19.078125 C 21.703125 -20.109375 22.3125 -21.59375 22.3125 -23.53125 C 22.3125 -25.445312 21.6875 -26.925781 20.4375 -27.96875 C 19.195312 -29.007812 17.460938 -29.53125 15.234375 -29.53125 Z M 7.421875 -29.53125 "/></g></g></g><g fill="#737373" fill-opacity="1"><g transform="translate(970.680838, 546.911827)"><g><path d="M 9.90625 0.4375 C 7.5 0.4375 5.59375 -0.171875 4.1875 -1.390625 C 2.78125 -2.609375 2.078125 -4.273438 2.078125 -6.390625 C 2.078125 -8.472656 2.859375 -10.117188 4.421875 -11.328125 C 5.703125 -12.347656 7.539062 -13.101562 9.9375 -13.59375 L 18.5 -15.234375 C 18.5 -17.117188 18.003906 -18.554688 17.015625 -19.546875 C 15.921875 -20.640625 14.445312 -21.1875 12.59375 -21.1875 C 11.113281 -21.1875 9.832031 -20.796875 8.75 -20.015625 C 7.664062 -19.234375 6.976562 -18.160156 6.6875 -16.796875 L 3 -16.796875 C 3.289062 -18.484375 3.90625 -19.890625 4.84375 -21.015625 C 5.78125 -22.140625 6.925781 -22.992188 8.28125 -23.578125 C 9.644531 -24.160156 11.097656 -24.453125 12.640625 -24.453125 C 14.023438 -24.453125 15.332031 -24.25 16.5625 -23.84375 C 17.789062 -23.4375 18.828125 -22.8125 19.671875 -21.96875 C 20.503906 -21.15625 21.09375 -20.242188 21.4375 -19.234375 C 21.789062 -18.222656 22.003906 -17.257812 22.078125 -16.34375 C 22.148438 -15.4375 22.1875 -14.707031 22.1875 -14.15625 L 22.1875 0 L 18.5 0 L 18.5 -3.78125 C 17.65625 -2.5625 16.6875 -1.617188 15.59375 -0.953125 C 14.78125 -0.460938 13.898438 -0.109375 12.953125 0.109375 C 12.015625 0.328125 11 0.4375 9.90625 0.4375 Z M 10.328125 -2.828125 C 11.804688 -2.828125 13.082031 -3.097656 14.15625 -3.640625 C 15.863281 -4.546875 17.019531 -5.707031 17.625 -7.125 C 18.238281 -8.539062 18.546875 -10.25 18.546875 -12.25 L 10.71875 -10.6875 C 8.925781 -10.332031 7.613281 -9.765625 6.78125 -8.984375 C 6.113281 -8.316406 5.78125 -7.476562 5.78125 -6.46875 C 5.78125 -5.363281 6.191406 -4.476562 7.015625 -3.8125 C 7.835938 -3.15625 8.941406 -2.828125 10.328125 -2.828125 Z M 10.328125 -2.828125 "/></g></g></g><g fill="#737373" fill-opacity="1"><g transform="translate(995.691227, 546.911827)"><g><path d="M 13.71875 0.4375 C 11.457031 0.4375 9.453125 -0.0976562 7.703125 -1.171875 C 5.953125 -2.242188 4.578125 -3.726562 3.578125 -5.625 C 2.578125 -7.519531 2.078125 -9.679688 2.078125 -12.109375 C 2.078125 -14.484375 2.566406 -16.597656 3.546875 -18.453125 C 4.535156 -20.304688 5.90625 -21.769531 7.65625 -22.84375 C 9.414062 -23.914062 11.4375 -24.453125 13.71875 -24.453125 C 16.414062 -24.453125 18.695312 -23.753906 20.5625 -22.359375 C 22.425781 -20.972656 23.632812 -19.117188 24.1875 -16.796875 L 20.234375 -16.796875 C 19.773438 -18.160156 18.957031 -19.234375 17.78125 -20.015625 C 16.601562 -20.796875 15.25 -21.1875 13.71875 -21.1875 C 12.21875 -21.1875 10.863281 -20.796875 9.65625 -20.015625 C 8.457031 -19.234375 7.507812 -18.160156 6.8125 -16.796875 C 6.125 -15.441406 5.78125 -13.878906 5.78125 -12.109375 C 5.78125 -10.285156 6.125 -8.675781 6.8125 -7.28125 C 7.507812 -5.894531 8.457031 -4.804688 9.65625 -4.015625 C 10.863281 -3.222656 12.21875 -2.828125 13.71875 -2.828125 C 15.394531 -2.828125 16.832031 -3.273438 18.03125 -4.171875 C 19.238281 -5.066406 20.03125 -6.253906 20.40625 -7.734375 L 24.359375 -7.734375 C 23.835938 -5.179688 22.609375 -3.179688 20.671875 -1.734375 C 18.734375 -0.285156 16.414062 0.4375 13.71875 0.4375 Z M 13.71875 0.4375 "/></g></g></g><g fill="#737373" fill-opacity="1"><g transform="translate(1021.83056, 546.911827)"><g><path d="M 6.8125 0 L 3.125 0 L 3.125 -33.125 L 6.8125 -33.125 L 6.8125 -20.28125 C 8.03125 -21.84375 9.195312 -22.925781 10.3125 -23.53125 C 11.425781 -24.144531 12.632812 -24.453125 13.9375 -24.453125 C 15.820312 -24.453125 17.328125 -24.09375 18.453125 -23.375 C 19.578125 -22.664062 20.429688 -21.765625 21.015625 -20.671875 C 21.597656 -19.597656 21.929688 -18.484375 22.015625 -17.328125 C 22.097656 -16.171875 22.140625 -15.210938 22.140625 -14.453125 L 22.140625 0 L 18.453125 0 L 18.453125 -14.453125 C 18.453125 -17.003906 17.988281 -18.800781 17.0625 -19.84375 C 16.25 -20.738281 15.019531 -21.1875 13.375 -21.1875 C 12.382812 -21.1875 11.523438 -21.023438 10.796875 -20.703125 C 10.078125 -20.390625 9.472656 -19.957031 8.984375 -19.40625 C 8.203125 -18.59375 7.644531 -17.476562 7.3125 -16.0625 C 6.976562 -14.644531 6.8125 -12.707031 6.8125 -10.25 Z M 6.8125 0 "/></g></g></g><g fill="#737373" fill-opacity="1"><g transform="translate(1046.884368, 546.911827)"><g><path d="M 13.765625 0.4375 C 11.472656 0.4375 9.441406 -0.101562 7.671875 -1.1875 C 5.910156 -2.28125 4.535156 -3.757812 3.546875 -5.625 C 2.566406 -7.488281 2.078125 -9.59375 2.078125 -11.9375 C 2.078125 -14.113281 2.523438 -16.15625 3.421875 -18.0625 C 4.328125 -19.96875 5.644531 -21.507812 7.375 -22.6875 C 9.113281 -23.863281 11.210938 -24.453125 13.671875 -24.453125 C 15.703125 -24.453125 17.59375 -24 19.34375 -23.09375 C 21.09375 -22.195312 22.515625 -20.863281 23.609375 -19.09375 C 24.710938 -17.332031 25.265625 -15.164062 25.265625 -12.59375 L 25.265625 -11.296875 L 5.734375 -11.296875 C 5.785156 -10.453125 5.941406 -9.65625 6.203125 -8.90625 C 6.816406 -7.050781 7.785156 -5.570312 9.109375 -4.46875 C 10.441406 -3.375 11.976562 -2.828125 13.71875 -2.828125 C 15.539062 -2.828125 17.0625 -3.3125 18.28125 -4.28125 C 19.5 -5.25 20.367188 -6.398438 20.890625 -7.734375 L 24.84375 -7.734375 C 24.34375 -6.222656 23.597656 -4.851562 22.609375 -3.625 C 21.628906 -2.394531 20.410156 -1.410156 18.953125 -0.671875 C 17.492188 0.0664062 15.765625 0.4375 13.765625 0.4375 Z M 6.078125 -14.546875 L 21.3125 -14.546875 C 21.289062 -14.953125 21.234375 -15.359375 21.140625 -15.765625 C 21.054688 -16.171875 20.941406 -16.546875 20.796875 -16.890625 C 20.160156 -18.273438 19.210938 -19.335938 17.953125 -20.078125 C 16.691406 -20.816406 15.296875 -21.1875 13.765625 -21.1875 C 12.171875 -21.1875 10.769531 -20.8125 9.5625 -20.0625 C 8.363281 -19.3125 7.4375 -18.253906 6.78125 -16.890625 C 6.601562 -16.515625 6.457031 -16.125 6.34375 -15.71875 C 6.226562 -15.3125 6.140625 -14.921875 6.078125 -14.546875 Z M 6.078125 -14.546875 "/></g></g></g><g fill="#737373" fill-opacity="1"><g transform="translate(1074.196064, 546.911827)"><g><path d="M 13.71875 0.4375 C 11.457031 0.4375 9.453125 -0.0976562 7.703125 -1.171875 C 5.953125 -2.242188 4.578125 -3.726562 3.578125 -5.625 C 2.578125 -7.519531 2.078125 -9.679688 2.078125 -12.109375 C 2.078125 -14.484375 2.566406 -16.597656 3.546875 -18.453125 C 4.535156 -20.304688 5.90625 -21.769531 7.65625 -22.84375 C 9.414062 -23.914062 11.4375 -24.453125 13.71875 -24.453125 C 16.414062 -24.453125 18.695312 -23.753906 20.5625 -22.359375 C 22.425781 -20.972656 23.632812 -19.117188 24.1875 -16.796875 L 20.234375 -16.796875 C 19.773438 -18.160156 18.957031 -19.234375 17.78125 -20.015625 C 16.601562 -20.796875 15.25 -21.1875 13.71875 -21.1875 C 12.21875 -21.1875 10.863281 -20.796875 9.65625 -20.015625 C 8.457031 -19.234375 7.507812 -18.160156 6.8125 -16.796875 C 6.125 -15.441406 5.78125 -13.878906 5.78125 -12.109375 C 5.78125 -10.285156 6.125 -8.675781 6.8125 -7.28125 C 7.507812 -5.894531 8.457031 -4.804688 9.65625 -4.015625 C 10.863281 -3.222656 12.21875 -2.828125 13.71875 -2.828125 C 15.394531 -2.828125 16.832031 -3.273438 18.03125 -4.171875 C 19.238281 -5.066406 20.03125 -6.253906 20.40625 -7.734375 L 24.359375 -7.734375 C 23.835938 -5.179688 22.609375 -3.179688 20.671875 -1.734375 C 18.734375 -0.285156 16.414062 0.4375 13.71875 0.4375 Z M 13.71875 0.4375 "/></g></g></g><g fill="#737373" fill-opacity="1"><g transform="translate(1100.335396, 546.911827)"><g><path d="M 13.8125 0.4375 C 11.519531 0.4375 9.488281 -0.0976562 7.71875 -1.171875 C 5.957031 -2.242188 4.578125 -3.726562 3.578125 -5.625 C 2.578125 -7.519531 2.078125 -9.679688 2.078125 -12.109375 C 2.078125 -14.484375 2.578125 -16.597656 3.578125 -18.453125 C 4.578125 -20.304688 5.957031 -21.769531 7.71875 -22.84375 C 9.488281 -23.914062 11.519531 -24.453125 13.8125 -24.453125 C 16.09375 -24.453125 18.125 -23.914062 19.90625 -22.84375 C 21.6875 -21.769531 23.082031 -20.304688 24.09375 -18.453125 C 25.113281 -16.597656 25.625 -14.484375 25.625 -12.109375 C 25.625 -9.710938 25.125 -7.566406 24.125 -5.671875 C 23.125 -3.773438 21.734375 -2.28125 19.953125 -1.1875 C 18.171875 -0.101562 16.125 0.4375 13.8125 0.4375 Z M 13.8125 -2.828125 C 15.34375 -2.828125 16.710938 -3.226562 17.921875 -4.03125 C 19.140625 -4.84375 20.101562 -5.953125 20.8125 -7.359375 C 21.53125 -8.765625 21.890625 -10.347656 21.890625 -12.109375 C 21.890625 -13.816406 21.539062 -15.359375 20.84375 -16.734375 C 20.144531 -18.109375 19.1875 -19.191406 17.96875 -19.984375 C 16.757812 -20.785156 15.375 -21.1875 13.8125 -21.1875 C 12.269531 -21.1875 10.890625 -20.796875 9.671875 -20.015625 C 8.460938 -19.234375 7.507812 -18.15625 6.8125 -16.78125 C 6.125 -15.40625 5.78125 -13.847656 5.78125 -12.109375 C 5.78125 -10.316406 6.132812 -8.71875 6.84375 -7.3125 C 7.550781 -5.90625 8.507812 -4.804688 9.71875 -4.015625 C 10.9375 -3.222656 12.300781 -2.828125 13.8125 -2.828125 Z M 13.8125 -2.828125 "/></g></g></g><g fill="#737373" fill-opacity="1"><g transform="translate(1128.081299, 546.911827)"><g><path d="M 13.890625 -12.890625 L 1.046875 -12.890625 L 1.046875 -16.109375 L 13.890625 -16.109375 Z M 13.890625 -12.890625 "/></g></g></g><g fill="#737373" fill-opacity="1"><g transform="translate(1143.018064, 546.911827)"><g><path d="M 20.328125 -14.71875 L 26.703125 0 L 22.3125 0 L 16.453125 -13.984375 L 7.421875 -13.984375 L 7.421875 0 L 3.4375 0 L 3.4375 -33.125 L 15.765625 -33.125 C 18.941406 -33.125 21.484375 -32.34375 23.390625 -30.78125 C 25.304688 -29.21875 26.265625 -26.847656 26.265625 -23.671875 C 26.265625 -21.441406 25.742188 -19.554688 24.703125 -18.015625 C 23.660156 -16.484375 22.203125 -15.382812 20.328125 -14.71875 Z M 7.421875 -17.546875 L 15.234375 -17.546875 C 17.523438 -17.546875 19.273438 -18.054688 20.484375 -19.078125 C 21.703125 -20.109375 22.3125 -21.59375 22.3125 -23.53125 C 22.3125 -25.445312 21.6875 -26.925781 20.4375 -27.96875 C 19.195312 -29.007812 17.460938 -29.53125 15.234375 -29.53125 L 7.421875 -29.53125 Z M 7.421875 -17.546875 "/></g></g></g><g fill="#737373" fill-opacity="1"><g transform="translate(1171.6758, 546.911827)"><g><path d="M 9.90625 0.4375 C 7.5 0.4375 5.59375 -0.171875 4.1875 -1.390625 C 2.78125 -2.609375 2.078125 -4.273438 2.078125 -6.390625 C 2.078125 -8.472656 2.859375 -10.117188 4.421875 -11.328125 C 5.703125 -12.347656 7.539062 -13.101562 9.9375 -13.59375 L 18.5 -15.234375 C 18.5 -17.117188 18.003906 -18.554688 17.015625 -19.546875 C 15.921875 -20.640625 14.445312 -21.1875 12.59375 -21.1875 C 11.113281 -21.1875 9.832031 -20.796875 8.75 -20.015625 C 7.664062 -19.234375 6.976562 -18.160156 6.6875 -16.796875 L 3 -16.796875 C 3.289062 -18.484375 3.90625 -19.890625 4.84375 -21.015625 C 5.78125 -22.140625 6.925781 -22.992188 8.28125 -23.578125 C 9.644531 -24.160156 11.097656 -24.453125 12.640625 -24.453125 C 14.023438 -24.453125 15.332031 -24.25 16.5625 -23.84375 C 17.789062 -23.4375 18.828125 -22.8125 19.671875 -21.96875 C 20.503906 -21.15625 21.09375 -20.242188 21.4375 -19.234375 C 21.789062 -18.222656 22.003906 -17.257812 22.078125 -16.34375 C 22.148438 -15.4375 22.1875 -14.707031 22.1875 -14.15625 L 22.1875 0 L 18.5 0 L 18.5 -3.78125 C 17.65625 -2.5625 16.6875 -1.617188 15.59375 -0.953125 C 14.78125 -0.460938 13.898438 -0.109375 12.953125 0.109375 C 12.015625 0.328125 11 0.4375 9.90625 0.4375 Z M 10.328125 -2.828125 C 11.804688 -2.828125 13.082031 -3.097656 14.15625 -3.640625 C 15.863281 -4.546875 17.019531 -5.707031 17.625 -7.125 C 18.238281 -8.539062 18.546875 -10.25 18.546875 -12.25 L 10.71875 -10.6875 C 8.925781 -10.332031 7.613281 -9.765625 6.78125 -8.984375 C 6.113281 -8.316406 5.78125 -7.476562 5.78125 -6.46875 C 5.78125 -5.363281 6.191406 -4.476562 7.015625 -3.8125 C 7.835938 -3.15625 8.941406 -2.828125 10.328125 -2.828125 Z M 10.328125 -2.828125 "/></g></g></g><g fill="#737373" fill-opacity="1"><g transform="translate(1196.686189, 546.911827)"><g><path d="M 6.78125 0 L 3.078125 0 L 3.078125 -24.015625 L 6.78125 -24.015625 L 6.78125 -20.28125 C 7.988281 -21.84375 9.148438 -22.925781 10.265625 -23.53125 C 11.378906 -24.144531 12.585938 -24.453125 13.890625 -24.453125 C 15.429688 -24.453125 16.828125 -24.085938 18.078125 -23.359375 C 19.335938 -22.640625 20.15625 -21.523438 20.53125 -20.015625 C 21.4375 -21.753906 22.5625 -22.925781 23.90625 -23.53125 C 25.25 -24.144531 26.660156 -24.453125 28.140625 -24.453125 C 30.859375 -24.453125 32.867188 -23.675781 34.171875 -22.125 C 35.472656 -20.570312 36.125 -18.40625 36.125 -15.625 L 36.125 0 L 32.4375 0 L 32.4375 -14.765625 C 32.4375 -16.847656 32.007812 -18.4375 31.15625 -19.53125 C 30.300781 -20.632812 29.109375 -21.1875 27.578125 -21.1875 C 26.703125 -21.1875 25.945312 -21.039062 25.3125 -20.75 C 24.675781 -20.46875 24.128906 -20.078125 23.671875 -19.578125 C 22.828125 -18.679688 22.242188 -17.515625 21.921875 -16.078125 C 21.609375 -14.648438 21.453125 -12.910156 21.453125 -10.859375 L 21.453125 0 L 17.765625 0 L 17.765625 -14.765625 C 17.765625 -16.816406 17.3125 -18.398438 16.40625 -19.515625 C 15.507812 -20.628906 14.328125 -21.1875 12.859375 -21.1875 C 12.046875 -21.1875 11.3125 -21.035156 10.65625 -20.734375 C 10.007812 -20.429688 9.4375 -20.003906 8.9375 -19.453125 C 8.21875 -18.640625 7.675781 -17.570312 7.3125 -16.25 C 6.957031 -14.9375 6.78125 -13.140625 6.78125 -10.859375 Z M 6.78125 0 "/></g></g></g><g fill="#737373" fill-opacity="1"><g transform="translate(1235.721497, 546.911827)"><g><path d="M 6.34375 -26.53125 L 2.953125 -26.53125 L 8.03125 -33.125 L 12.546875 -33.125 Z M 6.78125 0 L 3.078125 0 L 3.078125 -24.015625 L 6.78125 -24.015625 Z M 6.78125 0 "/></g></g></g><g fill="#737373" fill-opacity="1"><g transform="translate(1245.578011, 546.911827)"><g><path d="M 6.78125 0 L 3.078125 0 L 3.078125 -24.015625 L 6.78125 -24.015625 L 6.78125 -20.71875 C 7.875 -22.070312 9.050781 -23.03125 10.3125 -23.59375 C 11.570312 -24.164062 13.015625 -24.453125 14.640625 -24.453125 L 14.8125 -24.453125 L 14.8125 -20.75 L 13.546875 -20.75 C 11.609375 -20.75 10.0625 -20.171875 8.90625 -19.015625 C 8.207031 -18.347656 7.675781 -17.492188 7.3125 -16.453125 C 6.957031 -15.410156 6.78125 -14.140625 6.78125 -12.640625 Z M 6.78125 0 "/></g></g></g><g fill="#737373" fill-opacity="1"><g transform="translate(1261.339799, 546.911827)"><g><path d="M 13.765625 0.4375 C 11.472656 0.4375 9.441406 -0.101562 7.671875 -1.1875 C 5.910156 -2.28125 4.535156 -3.757812 3.546875 -5.625 C 2.566406 -7.488281 2.078125 -9.59375 2.078125 -11.9375 C 2.078125 -14.113281 2.523438 -16.15625 3.421875 -18.0625 C 4.328125 -19.96875 5.644531 -21.507812 7.375 -22.6875 C 9.113281 -23.863281 11.210938 -24.453125 13.671875 -24.453125 C 15.703125 -24.453125 17.59375 -24 19.34375 -23.09375 C 21.09375 -22.195312 22.515625 -20.863281 23.609375 -19.09375 C 24.710938 -17.332031 25.265625 -15.164062 25.265625 -12.59375 L 25.265625 -11.296875 L 5.734375 -11.296875 C 5.785156 -10.453125 5.941406 -9.65625 6.203125 -8.90625 C 6.816406 -7.050781 7.785156 -5.570312 9.109375 -4.46875 C 10.441406 -3.375 11.976562 -2.828125 13.71875 -2.828125 C 15.539062 -2.828125 17.0625 -3.3125 18.28125 -4.28125 C 19.5 -5.25 20.367188 -6.398438 20.890625 -7.734375 L 24.84375 -7.734375 C 24.34375 -6.222656 23.597656 -4.851562 22.609375 -3.625 C 21.628906 -2.394531 20.410156 -1.410156 18.953125 -0.671875 C 17.492188 0.0664062 15.765625 0.4375 13.765625 0.4375 Z M 6.078125 -14.546875 L 21.3125 -14.546875 C 21.289062 -14.953125 21.234375 -15.359375 21.140625 -15.765625 C 21.054688 -16.171875 20.941406 -16.546875 20.796875 -16.890625 C 20.160156 -18.273438 19.210938 -19.335938 17.953125 -20.078125 C 16.691406 -20.816406 15.296875 -21.1875 13.765625 -21.1875 C 12.171875 -21.1875 10.769531 -20.8125 9.5625 -20.0625 C 8.363281 -19.3125 7.4375 -18.253906 6.78125 -16.890625 C 6.601562 -16.515625 6.457031 -16.125 6.34375 -15.71875 C 6.226562 -15.3125 6.140625 -14.921875 6.078125 -14.546875 Z M 6.078125 -14.546875 "/></g></g></g><g fill="#737373" fill-opacity="1"><g transform="translate(1288.651481, 546.911827)"><g><path d="M 21.453125 0 L 1.46875 0 L 1.46875 -3.125 L 17.109375 -20.75 L 2.296875 -20.75 L 2.296875 -24.015625 L 21.578125 -24.015625 L 21.578125 -20.53125 L 6.25 -3.25 L 21.453125 -3.25 Z M 21.453125 0 "/></g></g></g></g></g></svg>