<svg xmlns="http://www.w3.org/2000/svg" xmlns:xlink="http://www.w3.org/1999/xlink" width="2000" zoomAndPan="magnify" viewBox="0 0 1500 1499.999933" height="2000" preserveAspectRatio="xMidYMid meet" version="1.0"><defs><clipPath id="abeef30124"><path d="M 2 116.25 L 1488 116.25 L 1488 938 L 2 938 Z M 2 116.25 " clip-rule="nonzero"/></clipPath><clipPath id="28f3cdff4b"><path d="M 9 725 L 1500 725 L 1500 1383.75 L 9 1383.75 Z M 9 725 " clip-rule="nonzero"/></clipPath></defs><g clip-path="url(#abeef30124)"><path fill="#1800ad" d="M 174.015625 937.089844 L 286.871094 937.089844 C 299.554688 937.089844 309.839844 926.808594 309.839844 914.121094 C 309.839844 901.433594 299.554688 891.15625 286.871094 891.15625 L 174.015625 891.15625 C 106.941406 891.15625 51.765625 839.832031 48.410156 774.316406 C 46.65625 740.074219 58.640625 707.585938 82.15625 682.835938 C 95.199219 669.109375 110.78125 658.8125 127.886719 652.347656 C 128.082031 652.285156 128.28125 652.234375 128.476562 652.167969 C 128.761719 652.066406 129.027344 651.9375 129.304688 651.828125 C 142.578125 647 156.738281 644.460938 171.347656 644.429688 C 171.691406 644.441406 172.046875 644.449219 172.503906 644.449219 L 209.273438 644.433594 C 208.238281 661.175781 210.5625 678.195312 216.472656 694.457031 C 219.867188 703.785156 228.675781 709.582031 238.058594 709.582031 C 240.667969 709.582031 243.320312 709.132812 245.90625 708.191406 C 257.828125 703.855469 263.976562 690.675781 259.640625 678.757812 C 250.792969 654.433594 254.558594 627.414062 269.710938 606.488281 C 281.449219 590.261719 298.757812 579.304688 318.433594 575.636719 C 330.902344 573.308594 339.125 561.316406 336.800781 548.847656 C 334.476562 536.378906 322.46875 528.15625 310.011719 530.480469 C 278.703125 536.320312 251.175781 553.75 232.5 579.554688 C 228.136719 585.578125 224.394531 591.921875 221.230469 598.492188 L 172.792969 598.511719 C 172.398438 598.5 172 598.492188 171.601562 598.492188 C 159.675781 598.492188 147.964844 599.714844 136.597656 602.082031 C 134.183594 590.722656 132.953125 579.097656 132.953125 567.324219 C 132.953125 483.121094 195.921875 413.398438 277.296875 402.644531 C 278.0625 409.09375 279.195312 415.484375 280.707031 421.769531 C 283.234375 432.300781 292.644531 439.382812 303.023438 439.382812 C 304.796875 439.382812 306.601562 439.171875 308.402344 438.742188 C 320.738281 435.78125 328.335938 423.378906 325.375 411.046875 C 323.191406 401.957031 322.085938 392.550781 322.085938 383.09375 C 322.085938 317.367188 375.554688 263.894531 441.28125 263.894531 C 455.132812 263.894531 468.628906 266.246094 481.3125 270.753906 C 481.539062 270.839844 481.765625 270.929688 481.992188 271.011719 C 498.082031 276.84375 512.847656 286.15625 525.339844 298.574219 C 534.335938 307.519531 548.875 307.480469 557.820312 298.488281 C 566.765625 289.492188 566.726562 274.949219 557.730469 266.003906 C 545.320312 253.660156 531.269531 243.570312 516.101562 235.84375 C 529.703125 192.910156 570.203125 162.261719 616.484375 162.261719 C 674.53125 162.261719 721.753906 209.484375 721.753906 267.527344 L 721.753906 370.628906 C 704.347656 358.445312 683.191406 351.269531 660.378906 351.269531 C 635.996094 351.269531 612.121094 359.671875 593.152344 374.929688 C 583.269531 382.882812 581.703125 397.339844 589.652344 407.222656 C 597.605469 417.109375 612.0625 418.671875 621.945312 410.722656 C 632.9375 401.878906 646.226562 397.207031 660.375 397.207031 C 694.214844 397.207031 721.75 424.738281 721.75 458.582031 L 721.75 630.519531 C 721.75 643.203125 732.035156 653.488281 744.71875 653.488281 C 757.402344 653.488281 767.683594 643.203125 767.683594 630.519531 L 767.683594 507.703125 C 775.535156 493.769531 786.816406 484.558594 801.351562 480.398438 C 817.902344 475.660156 837.207031 477.953125 854.542969 486.417969 C 858.113281 504.621094 866.09375 522.21875 878.667969 537.53125 C 893.421875 555.488281 912.957031 568.472656 935.15625 575.074219 C 937.339844 575.722656 939.546875 576.03125 941.714844 576.03125 C 951.613281 576.03125 960.753906 569.578125 963.71875 559.605469 C 967.335938 547.449219 960.410156 534.660156 948.253906 531.042969 C 934.863281 527.0625 923.078125 519.226562 914.164062 508.375 C 889.648438 478.527344 893.984375 434.296875 923.832031 409.777344 C 933.636719 401.726562 935.058594 387.253906 927.003906 377.453125 C 918.953125 367.652344 904.480469 366.226562 894.675781 374.28125 C 874.179688 391.117188 860.972656 413.574219 855.402344 437.609375 C 833.203125 430.878906 809.804688 430.199219 788.71875 436.234375 C 781.261719 438.367188 774.246094 441.261719 767.683594 444.851562 L 767.683594 267.535156 C 767.683594 209.488281 814.910156 162.269531 872.957031 162.269531 C 919.234375 162.269531 959.730469 192.910156 973.332031 235.835938 C 957.566406 243.871094 943.015625 254.460938 930.242188 267.488281 C 921.363281 276.542969 921.503906 291.085938 930.5625 299.96875 C 939.617188 308.847656 954.15625 308.707031 963.039062 299.648438 C 975.675781 286.765625 990.691406 277.125 1007.117188 271.117188 C 1007.449219 271.007812 1007.777344 270.894531 1008.101562 270.773438 C 1020.78125 266.265625 1034.273438 263.902344 1048.152344 263.902344 C 1113.878906 263.902344 1167.351562 317.375 1167.351562 383.101562 C 1167.351562 392.5625 1166.246094 401.964844 1164.0625 411.054688 C 1161.101562 423.390625 1168.699219 435.789062 1181.03125 438.75 C 1182.832031 439.183594 1184.636719 439.390625 1186.414062 439.390625 C 1196.789062 439.390625 1206.195312 432.308594 1208.726562 421.777344 C 1210.238281 415.488281 1211.375 409.097656 1212.136719 402.644531 C 1293.476562 413.371094 1356.480469 483.105469 1356.480469 567.328125 C 1356.480469 579.101562 1355.25 590.730469 1352.835938 602.089844 C 1341.464844 599.722656 1329.757812 598.496094 1317.832031 598.496094 C 1317.449219 598.496094 1317.074219 598.503906 1316.652344 598.519531 L 1257.484375 598.496094 C 1257.480469 598.496094 1257.476562 598.496094 1257.472656 598.496094 C 1244.792969 598.496094 1234.511719 608.773438 1234.507812 621.457031 C 1234.503906 634.140625 1244.78125 644.425781 1257.464844 644.433594 L 1317.058594 644.453125 C 1317.390625 644.453125 1317.714844 644.445312 1318.085938 644.433594 C 1332.699219 644.460938 1346.863281 647.007812 1360.140625 651.832031 C 1360.414062 651.945312 1360.675781 652.074219 1360.957031 652.171875 C 1361.148438 652.238281 1361.347656 652.285156 1361.542969 652.347656 C 1378.652344 658.808594 1394.234375 669.109375 1407.28125 682.839844 C 1430.796875 707.589844 1442.78125 740.078125 1441.027344 774.316406 C 1437.671875 839.835938 1382.5 891.160156 1315.421875 891.160156 L 1233.25 891.160156 C 1220.5625 891.160156 1210.28125 901.4375 1210.28125 914.125 C 1210.28125 926.8125 1220.5625 937.09375 1233.25 937.09375 L 1315.421875 937.09375 C 1406.972656 937.09375 1482.292969 866.625 1486.902344 776.667969 C 1489.304688 729.726562 1472.859375 685.171875 1440.582031 651.199219 C 1427.515625 637.445312 1412.578125 626.246094 1396.34375 617.722656 C 1400.347656 601.304688 1402.414062 584.433594 1402.414062 567.328125 C 1402.414062 457.402344 1318.355469 366.761719 1211.070312 356.265625 C 1198.210938 277.933594 1130.070312 217.96875 1048.152344 217.96875 C 1037.496094 217.96875 1027.011719 218.996094 1016.785156 220.953125 C 996.902344 159.84375 939.019531 116.335938 872.953125 116.335938 C 818.929688 116.335938 771.460938 144.832031 744.714844 187.566406 C 717.96875 144.832031 670.5 116.335938 616.480469 116.335938 C 550.414062 116.335938 492.535156 159.84375 472.648438 220.949219 C 462.414062 218.988281 451.925781 217.96875 441.28125 217.96875 C 359.367188 217.96875 291.226562 277.933594 278.363281 356.261719 C 171.117188 366.722656 87.019531 457.382812 87.019531 567.328125 C 87.019531 584.4375 89.085938 601.304688 93.09375 617.722656 C 76.855469 626.246094 61.917969 637.449219 48.851562 651.199219 C 16.578125 685.171875 0.125 729.726562 2.535156 776.667969 C 7.144531 866.621094 82.464844 937.089844 174.015625 937.089844 Z M 174.015625 937.089844 " fill-opacity="1" fill-rule="nonzero"/></g><g clip-path="url(#28f3cdff4b)"><path fill="#1800ad" d="M 1476.78125 1035.570312 L 1012.039062 1035.570312 C 1005.023438 1035.570312 998.394531 1038.773438 994.039062 1044.273438 L 936.078125 1117.398438 L 894.75 877.742188 C 892.902344 867.019531 883.785156 859.066406 872.914062 858.691406 C 862.082031 858.355469 852.398438 865.613281 849.808594 876.175781 L 764.542969 1224.105469 L 718.304688 746.039062 C 717.210938 734.742188 708.035156 725.941406 696.710938 725.316406 C 685.382812 724.675781 675.292969 732.429688 672.96875 743.535156 L 594.253906 1119.085938 L 522.164062 905.601562 C 519.085938 896.5 510.679688 890.273438 501.078125 889.988281 C 491.441406 889.722656 482.714844 895.425781 479.113281 904.332031 L 422.613281 1043.933594 L 32.726562 1043.933594 C 20.039062 1043.933594 9.757812 1054.214844 9.757812 1066.902344 C 9.757812 1079.589844 20.039062 1089.871094 32.726562 1089.871094 L 438.09375 1089.871094 C 447.449219 1089.871094 455.871094 1084.191406 459.382812 1075.515625 L 498.453125 978.972656 L 577.691406 1213.605469 C 581.007812 1223.425781 590.511719 1229.875 600.816406 1229.183594 C 611.15625 1228.570312 619.804688 1221.105469 621.929688 1210.96875 L 687.0625 900.195312 L 731.824219 1363.015625 C 732.902344 1374.164062 741.863281 1382.90625 753.035156 1383.714844 C 753.59375 1383.757812 754.144531 1383.773438 754.699219 1383.773438 C 765.199219 1383.773438 774.460938 1376.609375 776.996094 1366.273438 L 868.203125 994.109375 L 899.535156 1175.824219 C 901.078125 1184.75 907.714844 1191.9375 916.496094 1194.175781 C 925.273438 1196.40625 934.546875 1193.285156 940.171875 1186.1875 L 1023.136719 1081.507812 L 1476.78125 1081.507812 C 1489.464844 1081.507812 1499.746094 1071.226562 1499.746094 1058.539062 C 1499.746094 1045.851562 1489.464844 1035.570312 1476.78125 1035.570312 Z M 1476.78125 1035.570312 " fill-opacity="1" fill-rule="nonzero"/></g><path fill="#1800ad" d="M 1107.203125 683.832031 C 1094.613281 683.273438 1083.796875 693.082031 1083.234375 705.753906 C 1082.558594 720.832031 1076.054688 734.746094 1064.914062 744.933594 C 1053.777344 755.121094 1039.367188 760.382812 1024.257812 759.683594 C 1011.628906 759.058594 1000.851562 768.929688 1000.285156 781.601562 C 999.71875 794.273438 1009.53125 805.003906 1022.203125 805.570312 C 1023.773438 805.640625 1025.332031 805.671875 1026.894531 805.671875 C 1052.269531 805.671875 1076.394531 796.40625 1095.347656 779.320312 C 1100.765625 781.105469 1118.105469 788.234375 1123.269531 807.941406 C 1125.976562 818.257812 1135.285156 825.089844 1145.472656 825.089844 C 1147.398438 825.089844 1149.363281 824.847656 1151.3125 824.335938 C 1163.582031 821.117188 1170.921875 808.5625 1167.707031 796.292969 C 1160.050781 767.09375 1139.792969 749.742188 1122.117188 740.800781 C 1126.203125 730.402344 1128.609375 719.289062 1129.121094 707.796875 C 1129.691406 695.128906 1119.875 684.398438 1107.203125 683.832031 Z M 1107.203125 683.832031 " fill-opacity="1" fill-rule="nonzero"/><path fill="#1800ad" d="M 460.652344 677.347656 C 438.777344 693.789062 424.617188 717.769531 420.777344 744.859375 C 419 757.421875 427.734375 769.042969 440.296875 770.824219 C 441.390625 770.980469 442.472656 771.054688 443.550781 771.054688 C 454.804688 771.054688 464.636719 762.773438 466.261719 751.308594 C 468.382812 736.359375 476.191406 723.132812 488.257812 714.0625 C 500.320312 704.992188 515.191406 701.164062 530.144531 703.285156 C 542.714844 705.078125 554.324219 696.328125 556.109375 683.769531 C 557.890625 671.210938 549.152344 659.585938 536.59375 657.800781 C 509.480469 653.964844 482.527344 660.90625 460.652344 677.347656 Z M 460.652344 677.347656 " fill-opacity="1" fill-rule="nonzero"/></svg>